<svg width="37" height="30" fill="none" xmlns="http://www.w3.org/2000/svg"><path d="m28.41 18.51 3.693-2.15a2.644 2.644 0 0 1 1.91-.289 2.575 2.575 0 0 1 1.58 1.081c.347.526.479 1.158.37 1.773a2.484 2.484 0 0 1-.962 1.55l-6.59 4.951a3.546 3.546 0 0 1-1.294.61l-11.813 2.863a3.606 3.606 0 0 1-2.749-.443l-8.639-5.421H1v-9.05l5.808-.939a3.594 3.594 0 0 1 2.25.368l5.356 2.833 8.696.444a2.55 2.55 0 0 1 1.693.758 2.4 2.4 0 0 1 .691 1.68 2.4 2.4 0 0 1-.65 1.64c-.418.449-.994.731-1.616.792l-9.398.908" stroke="#757575" stroke-width="1.25" stroke-miterlimit="10" stroke-linecap="round" stroke-linejoin="round"/><g clip-path="url(#a)" stroke="#757575" stroke-width="1.25" stroke-linecap="round" stroke-linejoin="round"><path d="M21 8a6 6 0 0 0 6-6 6 6 0 0 0 6 6M21 8a6 6 0 0 1 6 6 6 6 0 0 1 6-6"/></g><defs><clipPath id="a"><path fill="#fff" transform="translate(20)" d="M0 0h14v14H0z"/></clipPath></defs></svg>