<svg width="440" height="454" fill="none" xmlns="http://www.w3.org/2000/svg"><mask id="a" style="mask-type:alpha" maskUnits="userSpaceOnUse" x="0" y="0" width="440" height="454"><path fill-rule="evenodd" clip-rule="evenodd" d="m120.411 1.586 311.601 158.329c7.187 3.651 10.053 12.439 6.402 19.627l-64.373 126.754c-3.651 7.189-12.436 10.056-19.623 6.404L42.817 154.372c-7.187-3.652-10.053-12.44-6.402-19.628L100.788 7.99c3.651-7.188 12.436-10.055 19.623-6.404ZM7.006 305.415l133.578-81.36c6.885-4.193 15.865-2.01 20.057 4.876l73.93 121.426c4.193 6.886 2.011 15.868-4.874 20.061l-133.578 81.36c-6.884 4.193-15.864 2.01-20.057-4.876L2.132 325.476c-4.193-6.886-2.01-15.868 4.874-20.061Z" fill="#D4145A"/></mask><g clip-path="url(#b)" mask="url(#a)"><path fill="#fff" d="M-2.007-8.43h1204.18v903.137H-2.007z"/><ellipse cx="446.993" cy="346.071" rx="711" ry="751.5" fill="#AD00FF"/><g filter="url(#c)"><circle cx="221.993" cy="189.571" r="362" fill="#F15A24"/></g><g filter="url(#d)"><circle cx="718.993" cy="176.571" r="451" fill="#0071BC"/></g><g filter="url(#e)"><circle cx="234.993" cy="700.571" r="467" fill="#D4145A"/></g><g filter="url(#f)"><circle cx="932.993" cy="610.571" r="409" fill="#F15A24"/></g></g><defs><filter id="c" x="-404.007" y="-436.429" width="1252" height="1252" filterUnits="userSpaceOnUse" color-interpolation-filters="sRGB"><feFlood flood-opacity="0" result="BackgroundImageFix"/><feBlend in="SourceGraphic" in2="BackgroundImageFix" result="shape"/><feGaussianBlur stdDeviation="132" result="effect1_foregroundBlur_2_15"/></filter><filter id="d" x="3.993" y="-538.429" width="1430" height="1430" filterUnits="userSpaceOnUse" color-interpolation-filters="sRGB"><feFlood flood-opacity="0" result="BackgroundImageFix"/><feBlend in="SourceGraphic" in2="BackgroundImageFix" result="shape"/><feGaussianBlur stdDeviation="132" result="effect1_foregroundBlur_2_15"/></filter><filter id="e" x="-496.007" y="-30.429" width="1462" height="1462" filterUnits="userSpaceOnUse" color-interpolation-filters="sRGB"><feFlood flood-opacity="0" result="BackgroundImageFix"/><feBlend in="SourceGraphic" in2="BackgroundImageFix" result="shape"/><feGaussianBlur stdDeviation="132" result="effect1_foregroundBlur_2_15"/></filter><filter id="f" x="259.993" y="-62.429" width="1346" height="1346" filterUnits="userSpaceOnUse" color-interpolation-filters="sRGB"><feFlood flood-opacity="0" result="BackgroundImageFix"/><feBlend in="SourceGraphic" in2="BackgroundImageFix" result="shape"/><feGaussianBlur stdDeviation="132" result="effect1_foregroundBlur_2_15"/></filter><clipPath id="b"><path fill="#fff" transform="translate(-2.007 -8.43)" d="M0 0h1204.18v903.136H0z"/></clipPath></defs></svg>