<svg width="141" height="34" viewBox="0 0 141 34" fill="none" xmlns="http://www.w3.org/2000/svg">
<path d="M19.0854 23.1452L21.3648 20.842C22.5305 22.3471 24.0055 23.0996 25.7899 23.0996C26.4855 23.1355 27.177 22.9716 27.7826 22.6273C28.0032 22.5072 28.1877 22.3303 28.3171 22.1149C28.4465 21.8996 28.516 21.6536 28.5185 21.4024C28.5185 20.5814 27.787 20.0385 26.3239 19.7735L24.3995 19.4477C22.83 19.1828 21.6133 18.6518 20.7493 17.8547C20.3201 17.4613 19.9814 16.9794 19.7565 16.4423C19.5316 15.9052 19.426 15.3256 19.4469 14.7436C19.4271 14.0736 19.5724 13.4091 19.87 12.8086C20.1675 12.2081 20.6082 11.6901 21.1531 11.3002C22.3353 10.4166 23.7807 9.95752 25.2559 9.99711C27.7175 9.99711 29.7363 10.8267 31.3123 12.486L29.0623 14.8348C27.8771 13.6099 26.5475 12.9975 25.0735 12.9975C24.4863 12.9694 23.9046 13.1218 23.4064 13.434C23.2136 13.5547 23.0552 13.723 22.9463 13.9227C22.8374 14.1224 22.7816 14.3467 22.7844 14.5742C22.7844 15.4017 23.5236 15.9522 25.0051 16.2193L26.5616 16.4669C30.0826 17.0207 31.8431 18.6507 31.8431 21.3567C31.8571 22.0322 31.7082 22.7012 31.4089 23.3068C31.1097 23.9125 30.6688 24.437 30.1238 24.836C28.9776 25.7221 27.469 26.1651 25.5978 26.1651C24.3131 26.177 23.0426 25.8963 21.8825 25.3442C20.7936 24.8361 19.8364 24.0836 19.0854 23.1452Z" fill="#293254"/>
<path d="M32.2273 17.897V14.9423H33.6373V11.8931H36.8187V14.9423H39.2348V17.897H36.8187V21.6727C36.7954 21.8627 36.8143 22.0555 36.874 22.2374C36.9336 22.4192 37.0326 22.5857 37.1638 22.725C37.4893 22.9444 37.88 23.0455 38.271 23.0116H39.212V25.9208C38.4696 25.9501 37.9095 25.9664 37.4862 25.9664C34.9202 25.9664 33.6373 24.6633 33.6373 22.0571V17.897H32.2273Z" fill="#293254"/>
<path d="M39.9833 20.4283C39.9617 19.6674 40.0972 18.9101 40.3812 18.2039C40.6653 17.4976 41.0918 16.8576 41.6342 16.3236C42.1801 15.7882 42.8281 15.368 43.5397 15.0882C44.2512 14.8084 45.0117 14.6746 45.776 14.6948C46.5391 14.6741 47.2984 14.8097 48.0072 15.0931C48.7161 15.3766 49.3596 15.802 49.8983 16.3432C50.4464 16.8729 50.8787 17.5106 51.1679 18.216C51.4571 18.9214 51.5969 19.6792 51.5785 20.4414C51.5968 21.2146 51.4604 21.9838 51.1772 22.7035C50.8941 23.4233 50.47 24.0792 49.9298 24.6326C49.3897 25.1859 48.7443 25.6257 48.0318 25.9259C47.3193 26.2262 46.554 26.3808 45.7809 26.3808C45.0078 26.3808 44.2424 26.2262 43.5299 25.9259C42.8174 25.6257 42.1721 25.1859 41.6319 24.6326C41.0918 24.0792 40.6676 23.4233 40.3845 22.7035C40.1014 21.9838 39.965 21.2146 39.9833 20.4414V20.4283ZM43.2395 20.4283C43.2099 21.1656 43.4639 21.8861 43.9493 22.4416C44.1876 22.6879 44.473 22.8837 44.7885 23.0175C45.104 23.1512 45.4431 23.2202 45.7858 23.2202C46.1284 23.2202 46.4675 23.1512 46.783 23.0175C47.0985 22.8837 47.3839 22.6879 47.6222 22.4416C48.0895 21.8767 48.3451 21.1664 48.3451 20.4332C48.3451 19.7 48.0895 18.9897 47.6222 18.4248C47.3861 18.1748 47.1014 17.9756 46.7856 17.8395C46.4698 17.7034 46.1296 17.6332 45.7858 17.6332C45.4419 17.6332 45.1017 17.7034 44.7859 17.8395C44.4701 17.9756 44.1855 18.1748 43.9493 18.4248C43.4651 18.9772 43.211 19.6942 43.2395 20.4283Z" fill="#293254"/>
<path d="M52.8843 25.9209V14.9424H56.0201V15.9197C56.6713 15.1617 57.582 14.7817 58.7521 14.7795C59.1819 14.7795 59.462 14.7795 59.5955 14.8023V17.8646H59.1038C58.6895 17.8421 58.2753 17.9103 57.89 18.0645C57.5048 18.2187 57.1578 18.455 56.8732 18.7572C56.3327 19.3544 56.0624 20.2079 56.0624 21.3177V25.9209H52.8843Z" fill="#293254"/>
<path d="M60.1715 20.5C60.1132 18.9695 60.6501 17.4761 61.6694 16.3334C62.1602 15.7932 62.7622 15.3658 63.4339 15.0807C64.1056 14.7955 64.8311 14.6594 65.5605 14.6817C67.2385 14.6817 68.5409 15.2431 69.4678 16.3659C70.3886 17.4681 70.8821 18.865 70.8582 20.3013L70.8354 21.2525H63.4016C63.468 21.8298 63.7522 22.36 64.1961 22.7348C64.6648 23.1189 65.2578 23.3182 65.8633 23.2951C66.3817 23.3139 66.8969 23.2067 67.3648 22.9826C67.8327 22.7584 68.2392 22.4241 68.5496 22.0083L70.6498 23.989C70.1168 24.6201 69.4633 25.1385 68.7275 25.5138C67.9917 25.889 67.1885 26.1135 66.3648 26.1742C65.5412 26.2349 64.7137 26.1305 63.9309 25.8671C63.1481 25.6038 62.4258 25.1868 61.8061 24.6405C60.7164 23.585 60.1715 22.2048 60.1715 20.5ZM63.5514 19.1089H67.4848C67.4709 18.8871 67.4134 18.6702 67.3156 18.4707C67.2179 18.2711 67.0817 18.0928 66.915 17.9459C66.5574 17.6279 66.0906 17.461 65.6126 17.4801C65.1156 17.461 64.6279 17.6179 64.2352 17.9231C63.8763 18.2257 63.6363 18.6459 63.5579 19.1089H63.5514Z" fill="#293254"/>
<path d="M72.7045 25.9209V10.2187H79.741C81.4081 10.2187 82.7268 10.5999 83.6972 11.3622C84.1779 11.7422 84.5609 12.2317 84.814 12.7899C85.0672 13.3481 85.1833 13.9588 85.1526 14.571C85.1603 15.1891 85.0193 15.8 84.7417 16.3522C84.464 16.9044 84.0578 17.3817 83.5571 17.744C84.8748 18.6822 85.5347 19.8767 85.5369 21.3275C85.5581 21.9602 85.4344 22.5894 85.1754 23.167C84.9164 23.7446 84.5288 24.2553 84.0423 24.6601C83.0524 25.5006 81.75 25.9198 80.135 25.9176L72.7045 25.9209ZM76.0387 16.5191H79.22C80.9566 16.5191 81.8249 15.9762 81.8249 14.8903C81.8493 14.6441 81.8032 14.396 81.6919 14.175C81.5806 13.9541 81.4088 13.7694 81.1965 13.6426C80.7797 13.4015 80.0763 13.2842 79.093 13.2842H76.0453L76.0387 16.5191ZM76.0387 22.8489H79.3828C80.3379 22.8489 81.0467 22.7088 81.509 22.4286C81.7402 22.2834 81.9271 22.0776 82.0494 21.8334C82.1717 21.5893 82.2247 21.3163 82.2026 21.0441C82.2026 19.893 81.292 19.3175 79.4707 19.3175H76.0387V22.8489Z" fill="#293254"/>
<path d="M86.7937 21.3307V14.9424H89.975V21.1906C89.9463 21.7212 90.1003 22.2455 90.4113 22.6762C90.5641 22.8558 90.7567 22.9973 90.9738 23.0895C91.1908 23.1816 91.4263 23.2219 91.6617 23.2072C92.9185 23.2072 93.547 22.3232 93.547 20.5554V14.9424H96.7282V25.9208H93.6121V25.1618C92.9609 25.8426 92.0426 26.1847 90.8737 26.1847C89.5907 26.1847 88.59 25.759 87.8715 24.9077C87.153 24.0563 86.7937 22.864 86.7937 21.3307Z" fill="#293254"/>
<path d="M98.7894 11.8378C98.7819 11.5901 98.8258 11.3436 98.9183 11.1137C99.0108 10.8838 99.1498 10.6756 99.3267 10.5021C99.495 10.3275 99.6976 10.1896 99.9218 10.0971C100.146 10.0046 100.387 9.9595 100.629 9.96459C100.873 9.96042 101.116 10.0059 101.342 10.0983C101.568 10.1907 101.773 10.3281 101.945 10.5021C102.126 10.6735 102.269 10.8809 102.365 11.111C102.46 11.341 102.507 11.5886 102.502 11.8378C102.505 12.0821 102.456 12.3243 102.36 12.5488C102.263 12.7732 102.121 12.9749 101.941 13.1409C101.771 13.313 101.568 13.4495 101.345 13.5423C101.121 13.6352 100.881 13.6825 100.639 13.6816C100.396 13.6865 100.155 13.641 99.931 13.5479C99.7068 13.4548 99.5044 13.3162 99.3364 13.1409C99.1609 12.9727 99.0218 12.7703 98.9277 12.5461C98.8336 12.322 98.7865 12.0809 98.7894 11.8378ZM99.0303 25.9208V14.9424H102.212V25.9208H99.0303Z" fill="#293254"/>
<path d="M104.96 25.9209V10.2187H108.141V25.9209H104.96Z" fill="#293254"/>
<path d="M109.411 20.4284C109.411 18.7083 109.932 17.3281 110.974 16.2878C111.478 15.7639 112.086 15.3506 112.759 15.0742C113.432 14.7977 114.154 14.6641 114.881 14.6818C115.91 14.6447 116.916 14.9933 117.701 15.6591V10.2187H120.892V25.9209H117.756V25.1325C116.974 25.8474 115.94 26.2224 114.881 26.175C114.157 26.1927 113.437 26.062 112.765 25.7908C112.093 25.5197 111.483 25.1138 110.974 24.5982C109.932 23.5558 109.411 22.1658 109.411 20.4284ZM112.667 20.4284C112.636 21.1806 112.89 21.9169 113.377 22.4905C113.606 22.7462 113.887 22.9496 114.202 23.0867C114.517 23.2239 114.857 23.2916 115.2 23.2854C115.543 23.2965 115.883 23.2308 116.197 23.0933C116.511 22.9558 116.79 22.7498 117.014 22.4905C117.494 21.9123 117.756 21.1846 117.756 20.4333C117.756 19.6819 117.494 18.9542 117.014 18.376C116.791 18.115 116.512 17.9071 116.198 17.7674C115.885 17.6276 115.544 17.5595 115.2 17.5681C114.854 17.5622 114.511 17.6314 114.194 17.7709C113.877 17.9103 113.594 18.1168 113.364 18.376C112.879 18.947 112.627 19.6797 112.657 20.4284H112.667Z" fill="#293254"/>
<path d="M122.188 20.5C122.188 18.806 122.687 17.4172 123.686 16.3334C124.176 15.7937 124.778 15.3665 125.449 15.0814C126.12 14.7963 126.845 14.66 127.574 14.6818C129.247 14.6818 130.55 15.2432 131.481 16.366C132.4 17.4692 132.892 18.8657 132.868 20.3013L132.842 21.2526H125.412C125.479 21.8288 125.762 22.3583 126.203 22.7348C126.672 23.1185 127.265 23.3177 127.87 23.2951C128.389 23.3137 128.904 23.2063 129.373 22.9823C129.841 22.7582 130.248 22.424 130.56 22.0084L132.657 23.989C132.124 24.6201 131.471 25.1384 130.735 25.5136C130 25.8888 129.197 26.1133 128.373 26.174C127.55 26.2347 126.723 26.1303 125.94 25.867C125.158 25.6037 124.436 25.1867 123.816 24.6406C122.729 23.5851 122.186 22.2049 122.188 20.5ZM125.565 19.109H129.498C129.485 18.8874 129.428 18.6706 129.331 18.471C129.233 18.2714 129.098 18.093 128.932 17.946C128.574 17.628 128.107 17.461 127.629 17.4801C127.139 17.4657 126.659 17.6223 126.271 17.9232C125.902 18.2213 125.651 18.6419 125.565 19.109Z" fill="#293254"/>
<path d="M134.154 25.9209V14.9424H137.293V15.9197C137.945 15.1607 138.843 14.7795 140.025 14.7795C140.455 14.7795 140.735 14.7795 140.866 14.8023V17.8646H140.374C139.96 17.8421 139.546 17.9104 139.162 18.0646C138.777 18.2187 138.431 18.4551 138.147 18.7572C137.61 19.3544 137.342 20.2079 137.342 21.3177V25.9209H134.154Z" fill="#293254"/>
<path d="M12.4341 21.5515H1.69628C1.44863 21.5515 1.24786 21.7523 1.24786 22V24.1562C1.24786 24.4039 1.44863 24.6047 1.69628 24.6047H12.4341C12.6817 24.6047 12.8825 24.4039 12.8825 24.1562V22C12.8825 21.7523 12.6817 21.5515 12.4341 21.5515Z" fill="#0071BC"/>
<path d="M12.8171 9.83263L3.68741 5.19372C3.47685 5.08673 3.21944 5.17074 3.11248 5.38135L1.22639 9.09514C1.11942 9.30575 1.20341 9.56322 1.41397 9.67021L10.5436 14.3091C10.7542 14.4161 11.0116 14.3321 11.1186 14.1215L13.0047 10.4077C13.1116 10.1971 13.0276 9.93962 12.8171 9.83263Z" fill="#F15A24"/>
<path d="M12.6068 15.5H8.39322C8.17605 15.5 8 15.6907 8 15.9259V20.074C8 20.3093 8.17605 20.5 8.39322 20.5H12.6068C12.8239 20.5 13 20.3093 13 20.074V15.9259C13 15.6907 12.8239 15.5 12.6068 15.5Z" fill="#29ABE2"/>
<path d="M4.27896 13.6054L0.365243 15.9892C0.163525 16.1121 0.0995837 16.3752 0.222427 16.577L2.38852 20.1347C2.51136 20.3364 2.77447 20.4004 2.97619 20.2775L6.88991 17.8938C7.09163 17.7709 7.15557 17.5077 7.03273 17.306L4.86663 13.7483C4.74379 13.5465 4.48068 13.4826 4.27896 13.6054Z" fill="#D4145A"/>
</svg>
